<svg xmlns="http://www.w3.org/2000/svg" viewBox="0 0 100 100">
  <!-- Background Circle (สีเขียวสนามฟุตบอล) -->
  <circle cx="50" cy="50" r="48" fill="#22c55e"/>
  
  <!-- Football Boot Shape -->
  <path d="M25 65 L30 45 Q35 35 50 35 L70 35 Q80 35 82 45 L85 55 Q86 62 80 65 L75 68 L25 68 Q22 68 22 65 Z" 
        fill="white" stroke="#15803d" stroke-width="2"/>
  
  <!-- Studs -->
  <rect x="30" y="68" width="6" height="8" rx="1" fill="#15803d"/>
  <rect x="42" y="68" width="6" height="8" rx="1" fill="#15803d"/>
  <rect x="54" y="68" width="6" height="8" rx="1" fill="#15803d"/>
  <rect x="66" y="68" width="6" height="8" rx="1" fill="#15803d"/>
  
  <!-- Laces -->
  <line x1="45" y1="40" x2="55" y2="40" stroke="#15803d" stroke-width="2"/>
  <line x1="43" y1="46" x2="57" y2="46" stroke="#15803d" stroke-width="2"/>
  <line x1="41" y1="52" x2="59" y2="52" stroke="#15803d" stroke-width="2"/>
</svg>

